<?xml version="1.0" encoding="UTF-8" standalone="no"?><!-- Generator: Gravit.io --><svg xmlns="http://www.w3.org/2000/svg" xmlns:xlink="http://www.w3.org/1999/xlink" style="isolation:isolate" viewBox="0 0 490 540" width="490pt" height="540pt"><defs><clipPath id="_clipPath_CwxmwaLT8YnHrZ4reaKtmIfKa2obNDxU"><rect width="490" height="540"/></clipPath></defs><g clip-path="url(#_clipPath_CwxmwaLT8YnHrZ4reaKtmIfKa2obNDxU)"><linearGradient id="_lgradient_0" x1="0.09502494965892705" y1="0.6644194354109397" x2="0.9040366719495007" y2="0.33394849320515074" gradientTransform="matrix(420.095,0,0,164.725,0,234.829)" gradientUnits="userSpaceOnUse"><stop offset="0%" stop-opacity="1" style="stop-color:rgb(255,200,200)"/><stop offset="100%" stop-opacity="1" style="stop-color:rgb(255,135,135)"/></linearGradient><path d=" M 56 383.126 L 0 300.793 Q 64 233.126 126.333 244.46 Q 144.333 245.46 163 240.126 C 181.667 234.793 214 226.793 245 254.793 Q 276 282.793 321.667 281.793 Q 425.53 281.83 419.795 309.788 Q 414.06 337.747 319.43 323.409 Q 255.627 316.957 228.385 337.747 Q 229.072 341.858 232.418 341.672 C 235.764 341.486 279.262 320.295 314.953 330.519 Q 353.99 337.954 370.348 335.538 Q 304.357 396.882 300.082 398.183 C 295.806 399.484 262.718 401.157 241.526 396.324 Q 220.335 391.491 137.799 369.742 Q 81.087 361.285 56 383.126 Z " fill="url(#_lgradient_0)"/><path d=" M 345.196 275.948 Q 383.534 248.425 387.828 241.193 C 392.122 233.96 421.729 213.62 441.617 221.304 L 421.503 235.09 Q 415.04 240.557 404.259 248.526 C 392.219 257.424 367.228 271.963 365.587 275.948 L 345.196 275.948 Z " fill="rgb(255,142,142)"/><path d=" M 372.902 278.703 Q 378.995 271.203 406.652 255.734 Q 428.059 240.216 430.558 237.453 Q 450.245 220.11 468.058 224.094 Q 479.073 225.5 478.604 228.781 Q 478.136 232.063 476.555 237.021 Q 459.791 235.875 447.603 240.797 Q 440.195 242.677 430.82 252.755 Q 415.918 264.753 399.981 270.378 Q 392.192 272.738 388.442 280.238 L 372.902 278.703 Z " fill="rgb(255,135,135)"/><path d=" M 394.946 283.77 Q 419.941 286.188 425.785 300.798 L 486.415 249.609 Q 471.55 234.227 441.912 251.342 Q 420.74 270.814 412.391 274.153 Q 402.878 276.257 394.946 283.77 Z " fill="rgb(255,135,135)"/><path d=" M 323.881 36.599 Q 308.781 50.628 291.639 41.228 Q 290.822 37.165 291.297 33.426 C 292.249 25.933 291.07 16.003 299.809 10.464 Q 308.648 4.862 344.298 0.071 C 335.419 16.25 331.71 29.325 323.881 36.599 Z " fill="rgb(91,255,65)"/><path d=" M 291.719 40.821 Q 291.747 40.988 291.781 41.157 Q 308.922 50.558 324.022 36.528 C 331.851 29.254 335.56 16.179 344.439 0 Q 344.268 0.023 344.105 0.046 C 323.355 22.175 305.899 35.772 291.719 40.821 L 291.719 40.821 Z " fill="rgb(173,255,160)"/><path d=" M 266.478 10.103 C 273.31 4.147 280.258 0.998 287.306 0.639 L 300.896 85.849 L 266.478 10.103 Z " fill="rgb(142,100,33)"/><path d=" M 265.907 103.759 C 237.296 156.314 244.93 208.06 282.944 219.24 C 320.958 230.421 375.049 196.831 403.659 144.275 C 432.27 91.72 424.636 39.974 386.622 28.794 C 348.608 17.613 294.518 51.204 265.907 103.759 Z " fill="rgb(255,255,255)"/><path d=" M 272.384 109.111 C 296.846 60.609 344.398 28.779 378.506 38.073 C 412.614 47.367 420.445 94.29 395.983 142.791 C 371.52 191.292 323.968 223.123 289.86 213.829 C 255.752 204.534 247.921 157.612 272.384 109.111 Z " fill="rgb(255,83,83)"/><path d=" M 197.594 145.47 C 169.24 93.387 175.957 42.356 212.584 31.584 C 249.211 20.811 301.966 54.349 330.32 106.432 C 358.673 158.515 351.957 209.545 315.33 220.318 C 278.703 231.091 225.948 197.552 197.594 145.47 Z " fill="rgb(255,255,255)"/><path d=" M 202.765 146.995 C 176.62 98.97 182.814 51.916 216.587 41.982 C 250.36 32.049 299.005 62.974 325.149 110.999 C 351.294 159.023 345.1 206.078 311.327 216.011 C 277.554 225.945 228.909 195.02 202.765 146.995 Z " fill="rgb(255,29,29)"/><path d=" M 279.051 8.409 Q 273.995 10.617 266.478 10.103 C 268.806 7.453 271.265 4 274.807 2.643 C 278.942 0.738 283.169 0.761 287.306 0.639 C 285 3.158 282.735 6.801 279.051 8.409 Z " fill="rgb(176,133,63)"/><defs><filter id="uGdKi8EepxNUEUoqVPkhdQ2zvCnyldQI" x="-200%" y="-200%" width="400%" height="400%" filterUnits="objectBoundingBox" color-interpolation-filters="sRGB"><feGaussianBlur xmlns="http://www.w3.org/2000/svg" stdDeviation="6.569221866143714"/></filter></defs><g filter="url(#uGdKi8EepxNUEUoqVPkhdQ2zvCnyldQI)"><ellipse vector-effect="non-scaling-stroke" cx="242.95400264345358" cy="495.81609195402297" rx="222.8965517241379" ry="15.448275862069181" fill="rgb(221,221,221)"/></g></g></svg>