<?xml version="1.0" encoding="UTF-8" standalone="no"?><!-- Generator: Gravit.io --><svg xmlns="http://www.w3.org/2000/svg" xmlns:xlink="http://www.w3.org/1999/xlink" style="isolation:isolate" viewBox="0 0 420 440" width="420pt" height="440pt"><defs><clipPath id="_clipPath_l1gofo4WQNkJvpEJhmW4Q1ppg0Hl7jYE"><rect width="420" height="440"/></clipPath></defs><g clip-path="url(#_clipPath_l1gofo4WQNkJvpEJhmW4Q1ppg0Hl7jYE)"><linearGradient id="_lgradient_0" x1="0.09502494965892705" y1="0.6644194354109397" x2="0.9040366719495007" y2="0.33394849320515074" gradientTransform="matrix(361.237,0,0,141.646,0,179.015)" gradientUnits="userSpaceOnUse"><stop offset="1.7391304347826086%" stop-opacity="1" style="stop-color:rgb(255,216,216)"/><stop offset="100%" stop-opacity="1" style="stop-color:rgb(255,116,116)"/></linearGradient><path d=" M 48.154 306.534 L 0 235.737 Q 55.033 177.551 108.633 187.296 Q 124.111 188.156 140.162 183.57 C 156.214 178.984 184.017 172.105 210.674 196.182 Q 237.33 220.259 276.599 219.399 Q 365.91 219.43 360.979 243.472 Q 356.047 267.513 274.676 255.184 Q 219.812 249.636 196.387 267.513 Q 196.977 271.048 199.854 270.888 C 202.731 270.728 240.135 252.506 270.826 261.297 Q 304.393 267.691 318.46 265.613 Q 261.714 318.362 258.038 319.481 C 254.362 320.6 225.909 322.039 207.687 317.883 Q 189.464 313.727 118.493 295.025 Q 69.726 287.753 48.154 306.534 Z " fill="url(#_lgradient_0)"/><path d=" M 296.832 214.372 Q 329.798 190.706 333.49 184.487 C 337.183 178.268 362.641 160.777 379.743 167.385 L 362.447 179.239 Q 356.889 183.94 347.619 190.792 C 337.266 198.444 315.776 210.946 314.365 214.372 L 296.832 214.372 Z " fill="rgb(255,142,142)"/><path d=" M 320.655 216.742 Q 325.895 210.292 349.676 196.991 Q 368.084 183.647 370.233 181.271 Q 387.162 166.357 402.479 169.784 Q 411.951 170.993 411.548 173.814 Q 411.145 176.636 409.786 180.9 Q 395.371 179.914 384.891 184.147 Q 378.52 185.763 370.459 194.429 Q 357.645 204.746 343.94 209.583 Q 337.243 211.613 334.018 218.062 L 320.655 216.742 Z " fill="rgb(255,135,135)"/><path d=" M 339.611 221.099 Q 361.104 223.178 366.129 235.741 L 418.264 191.723 Q 405.482 178.497 379.997 193.214 Q 361.791 209.958 354.612 212.829 Q 346.431 214.638 339.611 221.099 Z " fill="rgb(255,135,135)"/><path d=" M 228.651 66.308 C 204.049 111.5 210.613 155.996 243.301 165.61 C 275.989 175.224 322.501 146.34 347.104 101.148 C 371.706 55.956 365.141 11.461 332.453 1.846 C 299.766 -7.768 253.253 21.117 228.651 66.308 Z " fill="rgb(255,255,255)"/><path d=" M 234.221 70.91 C 255.256 29.205 296.145 1.833 325.474 9.826 C 354.804 17.818 361.537 58.166 340.502 99.872 C 319.467 141.578 278.578 168.949 249.249 160.957 C 219.92 152.964 213.186 112.616 234.221 70.91 Z " fill="rgb(255,33,55)"/><path d=" M 169.91 102.175 C 145.529 57.39 151.304 13.509 182.799 4.246 C 214.294 -5.018 259.659 23.821 284.04 68.607 C 308.42 113.392 302.645 157.273 271.15 166.537 C 239.655 175.8 194.29 146.961 169.91 102.175 Z " fill="rgb(255,255,255)"/><path d=" M 174.356 103.487 C 151.874 62.191 157.2 21.729 186.241 13.187 C 215.282 4.645 257.112 31.238 279.593 72.534 C 302.075 113.83 296.749 154.292 267.708 162.834 C 238.667 171.375 196.837 144.783 174.356 103.487 Z " fill="rgb(225,2,24)"/><defs><filter id="Wyj9sZ2IIXWeBYWd4kKW4bgCnxxcMSkn" x="-200%" y="-200%" width="400%" height="400%" filterUnits="objectBoundingBox" color-interpolation-filters="sRGB"><feGaussianBlur xmlns="http://www.w3.org/2000/svg" stdDeviation="6.569221866143714"/></filter></defs><g filter="url(#Wyj9sZ2IIXWeBYWd4kKW4bgCnxxcMSkn)"><ellipse vector-effect="non-scaling-stroke" cx="208.91422421553133" cy="403.4353527198939" rx="191.66698089804015" ry="13.283850161250484" fill="rgb(221,221,221)"/></g></g></svg>